<?xml version="1.0" encoding="UTF-8"?>
<!DOCTYPE svg PUBLIC "-//W3C//DTD SVG 1.1//EN" "http://www.w3.org/Graphics/SVG/1.1/DTD/svg11.dtd">
<svg xmlns="http://www.w3.org/2000/svg" version="1.1" width="1104px" height="226px" style="shape-rendering:geometricPrecision; text-rendering:geometricPrecision; image-rendering:optimizeQuality; fill-rule:evenodd; clip-rule:evenodd" xmlns:xlink="http://www.w3.org/1999/xlink">
<g><path style="opacity:1" fill="#010101" d="M 1019.5,7.5 C 1024.02,36.8284 1028.36,66.3284 1032.5,96C 1032.41,97.1074 1032.08,98.1074 1031.5,99C 1049.29,102.532 1066.96,106.532 1084.5,111C 1067.25,114.583 1050.08,118.416 1033,122.5C 1028.85,152.874 1024.52,183.207 1020,213.5C 1015.93,183.102 1011.43,152.769 1006.5,122.5C 989.454,118.822 972.454,114.988 955.5,111C 972.889,107.255 990.222,103.255 1007.5,99C 1001.95,98.2254 997.946,95.392 995.5,90.5C 997.523,89.959 999.523,90.459 1001.5,92C 1003.29,93.7799 1004.96,95.6132 1006.5,97.5C 1011.16,67.5321 1015.5,37.5321 1019.5,7.5 Z"/></g>
<g><path style="opacity:1" fill="#020104" d="M 333.5,165.5 C 334.72,163.95 334.72,162.284 333.5,160.5C 336.5,160.5 339.5,160.5 342.5,160.5C 342.509,158.692 342.009,157.025 341,155.5C 333.333,146.5 325.667,137.5 318,128.5C 314.09,132.038 312.256,136.538 312.5,142C 313.164,146.144 313.664,150.311 314,154.5C 314.707,156.081 315.54,157.581 316.5,159C 320.142,159.914 323.808,160.748 327.5,161.5C 328.833,162.833 328.833,164.167 327.5,165.5C 312.848,166.499 298.182,166.833 283.5,166.5C 283.261,164.533 283.594,162.699 284.5,161C 287.576,160.654 290.576,159.988 293.5,159C 295.487,157.681 296.654,155.848 297,153.5C 297.374,130.33 297.874,107.164 298.5,84C 298.424,74.4768 297.924,64.9768 297,55.5C 296.535,54.0692 295.701,52.9025 294.5,52C 290.472,51.6082 286.472,51.1082 282.5,50.5C 282.178,48.2776 282.845,46.4443 284.5,45C 293.349,43.2198 302.182,41.3865 311,39.5C 311.772,39.6448 312.439,39.9781 313,40.5C 313.333,67.8333 313.667,95.1667 314,122.5C 323.354,113.646 332.187,104.313 340.5,94.5C 339.91,93.2011 338.91,92.3678 337.5,92C 334.487,91.4978 331.487,90.9978 328.5,90.5C 328.5,88.8333 328.5,87.1667 328.5,85.5C 341.833,85.5 355.167,85.5 368.5,85.5C 368.739,87.4672 368.406,89.3005 367.5,91C 362.217,90.9764 357.55,92.643 353.5,96C 345.316,103.685 336.983,111.185 328.5,118.5C 340.148,132.282 352.148,145.782 364.5,159C 367.726,160.199 371.059,160.699 374.5,160.5C 374.5,162.5 374.5,164.5 374.5,166.5C 360.656,166.829 346.99,166.496 333.5,165.5 Z"/></g>
<g><path style="opacity:1" fill="#4b465e" d="M 49.5,49.5 C 33.8333,49.5 18.1667,49.5 2.5,49.5C 2.5,50.5 2.5,51.5 2.5,52.5C 1.54885,51.0813 1.21552,49.4147 1.5,47.5C 16.8046,47.6911 32.1379,47.8578 47.5,48C 48.4158,48.2784 49.0825,48.7784 49.5,49.5 Z"/></g>
<g><path style="opacity:1" fill="#000001" d="M 49.5,49.5 C 49.7394,51.4672 49.4061,53.3005 48.5,55C 42.0729,54.3408 37.5729,56.8408 35,62.5C 34.3333,90.8333 34.3333,119.167 35,147.5C 37.3004,155.078 42.4671,158.911 50.5,159C 59.5464,159.807 68.5464,159.474 77.5,158C 88.3995,155.241 94.7329,148.241 96.5,137C 98.4727,136.505 100.473,136.338 102.5,136.5C 101.95,146.512 101.284,156.512 100.5,166.5C 67.1667,166.5 33.8333,166.5 0.5,166.5C 0.5,164.5 0.5,162.5 0.5,160.5C 6.41762,160.892 11.5843,159.225 16,155.5C 16.3333,154.5 16.6667,153.5 17,152.5C 17.6667,122.5 17.6667,92.5 17,62.5C 14.1397,56.4727 9.30635,54.1394 2.5,55.5C 2.5,54.5 2.5,53.5 2.5,52.5C 2.5,51.5 2.5,50.5 2.5,49.5C 18.1667,49.5 33.8333,49.5 49.5,49.5 Z"/></g>
<g><path style="opacity:1" fill="#020103" d="M 149.5,83.5 C 173.068,82.2453 185.235,93.2453 186,116.5C 185.5,117 185,117.5 184.5,118C 166.503,118.5 148.503,118.667 130.5,118.5C 129.357,129.586 131.524,139.92 137,149.5C 147.355,160.635 159.189,162.468 172.5,155C 175.037,152.128 177.87,149.628 181,147.5C 183.295,149.08 184.628,151.08 185,153.5C 168.676,170.073 150.176,172.906 129.5,162C 112.918,147.426 108.418,129.592 116,108.5C 122.805,94.1941 133.971,85.8608 149.5,83.5 Z M 147.5,91.5 C 161.503,89.681 168.336,95.681 168,109.5C 166.266,110.249 164.433,110.749 162.5,111C 152.506,111.5 142.506,111.666 132.5,111.5C 133.667,101.786 138.667,95.1193 147.5,91.5 Z"/></g>
<g><path style="opacity:1" fill="#020204" d="M 237.5,83.5 C 261.037,82.2124 273.204,93.2124 274,116.5C 273.5,117 273,117.5 272.5,118C 254.503,118.5 236.503,118.667 218.5,118.5C 216.969,131.025 219.802,142.358 227,152.5C 237.577,160.826 248.744,161.66 260.5,155C 263.016,152.317 265.683,149.817 268.5,147.5C 274.642,150.66 274.642,154.16 268.5,158C 249.827,171.925 231.16,171.925 212.5,158C 200.397,144.07 197.231,128.237 203,110.5C 209.473,94.8709 220.973,85.8709 237.5,83.5 Z M 234.5,91.5 C 240.638,90.7321 246.305,91.8988 251.5,95C 255.612,99.0037 257.112,103.837 256,109.5C 244.262,111.739 232.429,112.073 220.5,110.5C 221.54,101.394 226.206,95.0609 234.5,91.5 Z"/></g>
<g><path style="opacity:1" fill="#1b4a74" d="M 416.5,46.5 C 427.646,45.1188 437.646,47.7855 446.5,54.5C 448.04,52.6132 449.707,50.7799 451.5,49C 452.793,48.51 454.127,48.3433 455.5,48.5C 456.75,59.2112 457.083,69.8779 456.5,80.5C 454.396,80.7989 452.396,80.4656 450.5,79.5C 444.241,58.5379 430.907,51.7045 410.5,59C 400.986,68.6173 401.319,77.9507 411.5,87C 424.167,93.6667 436.833,100.333 449.5,107C 462.924,114.688 468.091,126.188 465,141.5C 460.868,153.632 452.701,161.799 440.5,166C 423.895,170.91 408.561,168.41 394.5,158.5C 392.775,161.316 390.608,163.65 388,165.5C 387.055,165.095 386.388,164.428 386,163.5C 385.344,152.478 384.511,141.478 383.5,130.5C 385.792,130.244 387.959,130.577 390,131.5C 395.827,153.34 409.993,162.507 432.5,159C 447.349,154.466 451.849,144.966 446,130.5C 443.131,127.296 439.965,124.463 436.5,122C 423.697,116.433 411.364,110.099 399.5,103C 386.983,90.3406 385.15,76.174 394,60.5C 400.08,53.3852 407.58,48.7185 416.5,46.5 Z"/></g>
<g><path style="opacity:1" fill="#080707" d="M 1041.5,87.5 C 1042.24,87.369 1042.91,87.5357 1043.5,88C 1042.01,92.8323 1039.01,96.3323 1034.5,98.5C 1033.96,96.477 1034.46,94.477 1036,92.5C 1037.81,90.6997 1039.65,89.0331 1041.5,87.5 Z"/></g>
<g><path style="opacity:1" fill="#1b4974" d="M 843.5,83.5 C 844.496,83.4142 845.329,83.7476 846,84.5C 847.015,88.4402 847.515,92.4402 847.5,96.5C 848.552,96.6495 849.552,96.4828 850.5,96C 863.944,82.779 879.277,80.1123 896.5,88C 901.793,92.1993 904.626,97.6993 905,104.5C 905.088,121.872 905.754,139.205 907,156.5C 907.374,157.416 907.874,158.25 908.5,159C 911.424,159.988 914.424,160.654 917.5,161C 918.406,162.699 918.739,164.533 918.5,166.5C 904.833,166.5 891.167,166.5 877.5,166.5C 877.165,161.644 879.498,159.477 884.5,160C 886.286,159.215 887.786,158.049 889,156.5C 890.94,139.841 890.94,123.174 889,106.5C 885.676,94.0861 877.843,89.9194 865.5,94C 857.48,97.3508 852.313,103.184 850,111.5C 849.333,125.833 849.333,140.167 850,154.5C 850.273,156.329 851.107,157.829 852.5,159C 855.436,160.045 858.436,160.879 861.5,161.5C 862.645,162.776 862.645,164.109 861.5,165.5C 848.183,166.499 834.85,166.833 821.5,166.5C 821.5,164.5 821.5,162.5 821.5,160.5C 825.221,160.191 828.721,159.191 832,157.5C 833.129,147.737 833.629,137.903 833.5,128C 833.629,118.097 833.129,108.263 832,98.5C 831.228,97.1509 830.061,96.3176 828.5,96C 826.19,95.5034 823.857,95.3367 821.5,95.5C 821.244,93.2075 821.577,91.0408 822.5,89C 829.553,86.9455 836.553,85.1121 843.5,83.5 Z"/></g>
<g><path style="opacity:1" fill="#194872" d="M 518.5,83.5 C 542.204,82.0442 554.038,93.0442 554,116.5C 553.5,117 553,117.5 552.5,118C 534.836,118.5 517.17,118.667 499.5,118.5C 497.579,130.392 500.079,141.392 507,151.5C 517.798,161.135 529.298,161.969 541.5,154C 543.683,151.65 546.016,149.483 548.5,147.5C 551.738,148.342 553.238,150.342 553,153.5C 538.407,168.886 521.24,172.386 501.5,164C 484.516,153.082 478.016,137.582 482,117.5C 486.736,98.0699 498.902,86.7365 518.5,83.5 Z M 515.5,91.5 C 521.563,90.8377 527.23,92.0044 532.5,95C 536.612,99.0037 538.112,103.837 537,109.5C 535.266,110.249 533.433,110.749 531.5,111C 521.369,111.523 511.369,111.523 501.5,111C 502.002,101.644 506.669,95.1436 515.5,91.5 Z"/></g>
<g><path style="opacity:1" fill="#1a4974" d="M 759.5,83.5 C 778.604,82.4692 793.438,89.8026 804,105.5C 814.007,128.652 808.84,147.485 788.5,162C 764.913,173.551 745.079,169.051 729,148.5C 717.335,125.146 721.835,105.646 742.5,90C 748.015,87.1114 753.681,84.9447 759.5,83.5 Z M 761.5,91.5 C 778.493,91.7341 787.993,100.401 790,117.5C 791.221,127.087 790.221,136.421 787,145.5C 778.79,159.68 767.29,163.18 752.5,156C 744.101,147.649 740.101,137.482 740.5,125.5C 740.278,113.318 744.611,103.151 753.5,95C 756.158,93.522 758.825,92.3554 761.5,91.5 Z"/></g>
<g><path style="opacity:1" fill="#1a4873" d="M 595.5,83.5 C 604.062,83.1279 612.395,84.2946 620.5,87C 626.648,91.1235 629.815,96.9568 630,104.5C 630.073,121.544 630.74,138.544 632,155.5C 635.661,160.406 639.827,160.739 644.5,156.5C 647.283,159.342 646.95,161.842 643.5,164C 636.902,168.122 629.902,169.122 622.5,167C 618.044,163.587 615.544,159.087 615,153.5C 605.588,166.86 593.088,171.026 577.5,166C 566.46,158.341 564.627,148.841 572,137.5C 575.042,134.067 578.542,131.234 582.5,129C 592.956,124.022 603.456,119.188 614,114.5C 615.44,107.299 614.274,100.632 610.5,94.5C 608.972,93.1387 607.305,91.972 605.5,91C 600.713,90.1215 596.047,90.4548 591.5,92C 589.266,95.6355 587.432,99.4689 586,103.5C 582.088,108.426 577.755,108.759 573,104.5C 570.431,98.2015 571.931,93.0348 577.5,89C 583.34,86.2131 589.34,84.3798 595.5,83.5 Z M 611.5,122.5 C 612.5,122.5 613.5,122.5 614.5,122.5C 616.635,134.907 613.635,145.74 605.5,155C 597.832,160.303 590.999,159.469 585,152.5C 584.333,148.833 584.333,145.167 585,141.5C 587.128,138.37 589.628,135.537 592.5,133C 598.606,128.95 604.939,125.45 611.5,122.5 Z"/></g>
<g><path style="opacity:1" fill="#000000" d="M 1005.5,123.5 C 1006.1,123.735 1006.43,124.235 1006.5,125C 1005.42,129.748 1002.58,132.915 998,134.5C 998.032,132.402 998.699,130.402 1000,128.5C 1002.19,127.167 1004.02,125.5 1005.5,123.5 Z"/></g>
<g><path style="opacity:1" fill="#000000" d="M 1034.5,124.5 C 1033.83,123.167 1033.83,123.167 1034.5,124.5 Z"/></g>
<g><path style="opacity:1" fill="#000000" d="M 1034.5,124.5 C 1039.09,125.242 1042.42,127.742 1044.5,132C 1039.37,132.047 1036.03,129.547 1034.5,124.5 Z"/></g>
<g><path style="opacity:1" fill="#1a4974" d="M 675.5,83.5 C 682.408,83.5598 689.075,84.8932 695.5,87.5C 697.646,86.1064 699.979,85.4397 702.5,85.5C 702.814,93.0871 702.481,100.587 701.5,108C 700.056,108.781 698.723,108.614 697.5,107.5C 695.377,102.079 692.377,97.2459 688.5,93C 681.172,88.8037 675.005,89.9703 670,96.5C 668.924,101.072 669.757,105.239 672.5,109C 681.167,114.667 689.833,120.333 698.5,126C 712.753,138.381 713.087,151.047 699.5,164C 687.06,170.173 674.894,169.673 663,162.5C 661.699,163.098 660.865,164.098 660.5,165.5C 658.955,166.452 657.288,166.785 655.5,166.5C 655.5,157.833 655.5,149.167 655.5,140.5C 657.199,140.34 658.866,140.506 660.5,141C 662.272,150.558 667.606,157.225 676.5,161C 690.247,163.255 695.747,157.755 693,144.5C 685.049,137.886 676.549,132.052 667.5,127C 653.555,114.661 652.888,101.661 665.5,88C 668.815,86.1702 672.149,84.6702 675.5,83.5 Z"/></g>
<g><path style="opacity:1" fill="#807b96" d="M 333.5,160.5 C 334.72,162.284 334.72,163.95 333.5,165.5C 332.711,165.217 332.044,164.717 331.5,164C 332.085,162.698 332.751,161.531 333.5,160.5 Z"/></g>
</svg>
